<?xml version="1.0" encoding="utf-8"?>
<!-- Generator: Adobe Illustrator 16.0.0, SVG Export Plug-In . SVG Version: 6.00 Build 0)  -->
<!DOCTYPE svg PUBLIC "-//W3C//DTD SVG 1.1//EN" "http://www.w3.org/Graphics/SVG/1.1/DTD/svg11.dtd" [
	<!ENTITY st0 "fill:#AAAAAA;">
	<!ENTITY st1 "fill:none;stroke:#FFFFFF;stroke-miterlimit:10;">
	<!ENTITY st2 "stroke:#AAAAAA;stroke-miterlimit:10;">
	<!ENTITY st3 "fill:#4F4F4F;stroke:#000000;stroke-miterlimit:10;">
	<!ENTITY st4 "fill:none;stroke:#AAAAAA;stroke-width:3;stroke-miterlimit:10;">
	<!ENTITY st5 "fill:none;stroke:#000000;stroke-width:3;stroke-miterlimit:10;">
	<!ENTITY st6 "fill:#AAAAAA;stroke:#000000;stroke-miterlimit:10;">
	<!ENTITY st7 "fill:none;stroke:#000000;stroke-width:7;stroke-miterlimit:10;">
	<!ENTITY st8 "fill:#424242;stroke:#AAAAAA;stroke-miterlimit:10;">
]>
<svg version="1.1" id="Layer_1" xmlns="http://www.w3.org/2000/svg" xmlns:xlink="http://www.w3.org/1999/xlink" x="0px" y="0px"
	 width="295px" height="115px" viewBox="0 0 295 115" style="enable-background:new 0 0 295 115;" xml:space="preserve">
<path style="&st2;" d="M203.5,72.566c0-2.773-2.238-5.021-5-5.021l0,0c-2.762,0-5,2.248-5,5.021v27.116c0,2.773,2.238,5.021,5,5.021
	l0,0c2.762,0,5-2.248,5-5.021V72.566z"/>
<line style="&st4;" x1="198.5" y1="96" x2="198.5" y2="4"/>
<rect x="82.5" y="32.5" style="&st3;" width="25" height="33"/>
<rect x="79.5" y="14.5" style="&st3;" width="31" height="22"/>
<path style="&st2;" d="M174.245,54.482c0.936,3.916-0.58,7.639-3.386,8.316L127.4,73.275c-2.806,0.674-5.839-1.95-6.774-5.866
	l-0.05-0.21c-0.937-3.915,0.579-7.64,3.385-8.316l43.459-10.476c2.806-0.676,5.839,1.951,6.775,5.867L174.245,54.482z"/>
<path style="&st2;" d="M174.19,38.59c0.936,3.914-0.58,7.639-3.386,8.316l-43.459,10.476c-2.806,0.676-5.839-1.95-6.774-5.865
	l-0.051-0.211c-0.936-3.916,0.58-7.638,3.386-8.316l43.459-10.477c2.806-0.674,5.839,1.952,6.774,5.867L174.19,38.59z"/>
<path style="&st2;" d="M174.136,22.697c0.935,3.915-0.582,7.638-3.387,8.316l-43.46,10.475c-2.806,0.676-5.838-1.951-6.772-5.865
	l-0.052-0.211c-0.936-3.916,0.58-7.639,3.386-8.315L167.31,16.62c2.806-0.675,5.839,1.95,6.774,5.866L174.136,22.697z"/>
<path style="&st2;" d="M174.08,6.804c0.935,3.915-0.581,7.638-3.387,8.315l-43.459,10.476c-2.806,0.676-5.839-1.95-6.773-5.866
	l-0.051-0.208c-0.937-3.917,0.58-7.639,3.385-8.317l43.459-10.477c2.807-0.674,5.839,1.951,6.775,5.867L174.08,6.804z"/>
<rect x="114.5" y="82.5" style="&st2;" width="80" height="8"/>
<path style="&st7;" d="M53.5,35.407c0,0,15-2.676,19.25,17.116s-12,7.489-5.25,18.536"/>
<path style="&st1;" d="M59.75,34.528c2.07,1.143,4.224,1.91,6.009,3.43c1.306,1.111,1.943,2.457,2.988,3.763
	c1.676,2.097,2.742,3.799,3.003,6.491"/>
<line style="&st1;" x1="73.5" y1="52" x2="73.5" y2="54"/>
<g>
	<ellipse style="&st2;" cx="45.261" cy="78.52" rx="35.948" ry="36.102"/>
	<ellipse style="&st8;" cx="45.261" cy="78.52" rx="29.82" ry="29.945"/>
</g>
<polygon style="&st2;" points="56.5,17.5 35.5,17.5 35.5,39.5 40.5,39.5 40.5,68.5 51.5,68.5 51.5,39.5 56.5,39.5 "/>
<rect x="15.5" y="64.5" style="&st6;" width="11" height="13"/>
<ellipse style="&st6;" cx="100.714" cy="73.354" rx="9.214" ry="9.255"/>
<path style="&st5;" d="M35.75,34.402c0,0-19.5-2.632-27.375,17.766C0.5,72.566,6.887,103.419,22.063,89.64
	C37.238,75.859,25,65.787,22.375,70.056"/>
<path style="&st1;" d="M21.75,37.667c-1.759,1.731-4.11,2.759-5.873,4.526c-1.736,1.738-3.429,3.742-5.084,5.309
	c-0.69,1.387-2.133,3.152-2.292,4.728"/>
<path style="&st1;" d="M4.375,75.077c-0.177,2.837,0.978,7.032,2.174,9.753c0.63,1.434,3.247,5.665,4.589,6.817"/>
<path style="&st1;" d="M27.75,84.743c0.51-1.096,2.497-3.56,2.25-4.771"/>
<g>
	<rect x="33.5" y="67.5" style="&st6;" width="24" height="21"/>
	<ellipse style="&st6;" cx="45.5" cy="78.592" rx="13" ry="13.056"/>
	<ellipse style="&st6;" cx="45.5" cy="78.592" rx="6.5" ry="6.528"/>
</g>
<ellipse style="&st2;" cx="21.5" cy="70.558" rx="3.5" ry="3.515"/>
<ellipse style="&st6;" cx="53.5" cy="35.407" rx="3.5" ry="3.515"/>
<rect x="99.5" y="82.5" style="&st2;" width="80" height="8"/>
<path style="&st7;" d="M240.5,35.407c0,0-15-2.676-19.25,17.116s12,7.489,5.25,18.536"/>
<path style="&st1;" d="M234.25,34.528c-2.07,1.143-4.225,1.91-6.01,3.43c-1.305,1.111-1.943,2.457-2.987,3.763
	c-1.676,2.097-2.742,3.799-3.003,6.491"/>
<line style="&st1;" x1="220.5" y1="52" x2="220.5" y2="54"/>
<g>
	<ellipse style="&st2;" cx="248.739" cy="78.52" rx="35.948" ry="36.102"/>
	<ellipse style="&st8;" cx="248.739" cy="78.52" rx="29.82" ry="29.945"/>
</g>
<g>
	<polygon points="201,89 201,87 119,87 119,87 94,87 94,89 83.425,89 44.27,72 1,72 1,57 88,57 88,59 207,59 207,57 294,57 294,72 
		251.126,72 211.877,89 	"/>
	<path style="&st0;" d="M293,57v15h-41.77h-0.208l-0.19,0.047L211.773,89H201v-1.369V87h-0.5H119l0,0h-0.734H94.5H93v0.5V89h-9.471
		L44.564,72.083L44.374,72h-0.208H1V58h86v0.5V60h1.5h118h0.5v-1.5V57H293 M294,56h-88v3H88v-2H0v16h44.166l39.155,17H94v-2h24l0,0
		h82v2h11.981l39.249-17H294V56L294,56z"/>
</g>
<polygon style="&st2;" points="237.5,17.5 258.5,17.5 258.5,39.5 253.5,39.5 253.5,68.5 242.5,68.5 242.5,39.5 237.5,39.5 "/>
<rect x="267.5" y="64.5" style="&st6;" width="11" height="13"/>
<ellipse style="&st6;" cx="193.286" cy="73.354" rx="9.214" ry="9.255"/>
<ellipse style="&st6;" cx="99.286" cy="73.354" rx="9.214" ry="9.255"/>
<path style="&st5;" d="M258.25,34.402c0,0,19.5-2.632,27.375,17.766c7.875,20.398,1.487,51.251-13.688,37.472
	c-15.176-13.78-2.938-23.853-0.313-19.584"/>
<path style="&st1;" d="M272.25,37.667c1.76,1.731,4.109,2.759,5.873,4.526c1.736,1.738,3.429,3.742,5.084,5.309
	c0.691,1.387,2.133,3.152,2.293,4.728"/>
<path style="&st1;" d="M289.625,75.077c0.177,2.837-0.979,7.032-2.175,9.753c-0.63,1.434-3.247,5.665-4.589,6.817"/>
<path style="&st1;" d="M266.25,84.743c-0.51-1.096-2.497-3.56-2.25-4.771"/>
<g>
	<rect x="236.5" y="67.5" style="&st6;" width="24" height="21"/>
	<ellipse style="&st6;" cx="248.5" cy="78.592" rx="13" ry="13.056"/>
	<ellipse style="&st6;" cx="248.5" cy="78.592" rx="6.5" ry="6.528"/>
</g>
<ellipse style="&st2;" cx="272.5" cy="70.558" rx="3.5" ry="3.515"/>
<ellipse style="&st6;" cx="240.5" cy="35.407" rx="3.5" ry="3.515"/>
<path style="&st2;" d="M71.5,83.399c0,1.9-1.767,3.101-4.048,3.101h-4.82c-2.282,0-4.132-1.2-4.132-3.101V69.645
	c0-1.898,1.85-3.145,4.132-3.145h4.82c2.282,0,4.048,1.246,4.048,3.145V83.399z"/>
<path style="&st2;" d="M74.5,78.76c0,2.126-1.717,3.74-3.834,3.74H59.334c-2.117,0-3.834-1.614-3.834-3.74v-0.336
	c0-2.126,1.717-3.924,3.834-3.924h11.332c2.117,0,3.834,1.798,3.834,3.924V78.76z"/>
<path style="&st2;" d="M236.5,83.399c0,1.9-1.767,3.101-4.049,3.101h-4.819c-2.282,0-4.132-1.2-4.132-3.101V69.645
	c0-1.898,1.85-3.145,4.132-3.145h4.819c2.282,0,4.049,1.246,4.049,3.145V83.399z"/>
<path style="&st2;" d="M239.5,78.76c0,2.126-1.717,3.74-3.834,3.74h-11.332c-2.117,0-3.834-1.614-3.834-3.74v-0.336
	c0-2.126,1.717-3.924,3.834-3.924h11.332c2.117,0,3.834,1.798,3.834,3.924V78.76z"/>
</svg>
