<?xml version="1.0" encoding="utf-8"?>
<!-- Generator: Adobe Illustrator 16.0.0, SVG Export Plug-In . SVG Version: 6.00 Build 0)  -->
<!DOCTYPE svg PUBLIC "-//W3C//DTD SVG 1.1//EN" "http://www.w3.org/Graphics/SVG/1.1/DTD/svg11.dtd" [
	<!ENTITY st0 "fill:#AFAFAF;">
	<!ENTITY st1 "fill:#E5E5E5;">
	<!ENTITY st2 "fill:#18D155;">
	<!ENTITY st3 "fill:#869B8C;">
	<!ENTITY st4 "fill:#8C8C8C;">
	<!ENTITY st5 "fill:#FAFFFC;">
	<!ENTITY st6 "fill:#999999;">
	<!ENTITY st7 "fill:none;stroke:#1C1C1C;stroke-width:6;stroke-miterlimit:10;">
	<!ENTITY st8 "fill:#FFFFFF;">
	<!ENTITY st9 "fill:#686868;">
	<!ENTITY st10 "fill:#AFAFAF;stroke:#595959;stroke-width:5;stroke-miterlimit:10;">
	<!ENTITY st11 "fill:none;stroke:#4D4D4D;stroke-width:3;stroke-linecap:round;stroke-miterlimit:10;">
	<!ENTITY st12 "fill:#D3D3D3;">
	<!ENTITY st13 "fill:none;stroke:#1C1C1C;stroke-width:6;stroke-linecap:round;stroke-miterlimit:10;">
	<!ENTITY st14 "fill:none;stroke:#869B8C;stroke-width:4;stroke-miterlimit:10;">
	<!ENTITY st15 "fill:none;stroke:#666666;stroke-width:5;stroke-linecap:round;stroke-miterlimit:10;">
]>
<svg version="1.1" id="Layer_1" xmlns="http://www.w3.org/2000/svg" xmlns:xlink="http://www.w3.org/1999/xlink" x="0px" y="0px"
	 width="145px" height="268px" viewBox="0 0 145 268" style="enable-background:new 0 0 145 268;" xml:space="preserve">
<g>
	<polygon style="&st0;" points="69,240 66,240 66,229 64,229 64,226 24,226 24,238 32,238 32,240 28,240 28,250 33,250 33,258 
		67,258 67,250 69,250 	"/>
	<path style="&st1;" d="M38.455,222.396c-9.416,2.006-31.49-26.818-31.49-26.818c-9.417-18.715-5.992-84.262-5.992-84.262
		c8.744-74.194,54.266-96.94,54.266-96.94S85,0.318,90,7.671v211.552L38.455,222.396z"/>
	<path style="&st1;" d="M26.755,216.633l20.353,47.708c0,0,15.806,6.017,18.833,2.341c3.027-3.677,7.063-37.098,8.408-36.43
		c1.346,0.669,32.284-12.503,50.108-7.755c0,0,8.408-1.437,6.727-5.864c0,0-2.245-13.451,0.223-10.443
		C133.875,209.197,26.755,216.633,26.755,216.633z"/>
	<path style="&st1;" d="M84.915,5.545c0,0,56.131-7.216,60.88-4.876c0,0,1.036,208.362-0.829,210.201s-76.334,0-76.334,0
		L84.915,5.545z"/>
	<path style="&st9;" d="M2.051,151.281c0,0,7.056,7.896,19.163,6.197c0,0,17.739-3.999,16.604-9.518
		c-1.135-5.518-3.825-96.326,30.814-102.552c0,0,8.578-7.914-6.39-16.415c0,0-19.292-9.127-26.083,0
		C36.159,28.995-9.712,61.316,2.051,151.281z"/>
	<path style="&st2;" d="M1.513,168.174c0,0,69.487-38.729,79.487-39.98v45.911c0,0-61.29,21.298-63.75,28.573
		C17.25,202.678,1.481,182.798,1.513,168.174z"/>
	<path style="&st5;" d="M1.907,172.804c0,0,70.432-40.299,80.999-41.811l0.457,37.096c0,0-65.093,23.839-67.428,30.329
		C15.936,198.418,2.381,185.648,1.907,172.804z"/>
	<line style="&st14;" x1="85.41" y1="150.042" x2="6.889" y2="187.101"/>
	<path style="&st13;" d="M62.242,28.995c0,0-19.293-9.127-26.083,0"/>
	<path style="&st13;" d="M68.632,45.409c0,0,8.579-7.914-6.39-16.415"/>
	<path style="&st7;" d="M37.818,147.961c-1.135-5.518-3.825-96.326,30.814-102.552"/>
	<path style="&st7;" d="M21.213,157.479c0,0,17.739-3.999,16.604-9.518"/>
	<path style="&st13;" d="M2.051,151.281c0,0,7.056,7.896,19.163,6.197"/>
	<path style="&st13;" d="M9.401,66.828c0,0,25.6-1.044,32.326,14.805"/>
	<path style="&st10;" d="M117.834,37.812c-6.883,0.019-12.504,6.743-13.713,8.299c-0.186,0.407-0.451,0.771-0.795,1.057
		L90.045,66.743c-6.428,9.476-7.086,19.874-7.139,22.787v89.203h58.632V37.812H117.834z"/>
	<path style="&st4;" d="M120.127,54.725c-3.533,0.004-6.418,1.682-7.037,2.071c-0.097,0.102-0.232,0.192-0.408,0.264l-6.24,5.3
		c-1.557,2.175-2.668,4.413-3.338,6.757v20.769h29.186v-35.16H120.127z"/>
	<line style="&st11;" x1="123" y1="121.5" x2="133" y2="121.5"/>
	<path style="&st2;" d="M111.637,125.979c-5.438,0-15.502,0.037-26.227,1.489v45.335c13.422-1.608,26.36-1.707,26.36-1.707h27.232
		v-45.117H111.637z"/>
	<rect x="85.41" y="130.993" style="&st8;" width="53.593" height="37.096"/>
	<path style="&st3;" d="M85.381,148.037v3.994c0,0.006,0,0.011,0,0.017h53.614v-4.011H85.381z"/>
	<path style="&st6;" d="M21.36,185.948c1.479,2.411,8.691,5.677,9.448,7.958c0.957,2.886-5.761,5.537-6.042,7.583
		c-0.231,1.678-2.873,3.295-3.994,3.975c-3.568,2.163-10.421-2.54-15.307-10.503C0.579,187-0.489,178.792,3.08,176.63
		C17.544,167.862,16.494,178.018,21.36,185.948z"/>
	<path style="&st6;" d="M29.542,205.945"/>
	<line style="&st15;" x1="93.5" y1="90" x2="93.5" y2="144"/>
	<path style="&st12;" d="M134.715,223.006v-10.063c-2.468-2.251-4.936-4.503-7.402-6.755H14.193c-2.776,0-5.316,0.622-7.304,1.693
		v16.489c1.988,1.165,4.528,1.87,7.304,1.87h116.984C132.355,225.162,133.535,224.084,134.715,223.006z"/>
</g>
</svg>
