<?xml version="1.0" encoding="utf-8"?>
<!-- Generator: Adobe Illustrator 16.0.0, SVG Export Plug-In . SVG Version: 6.00 Build 0)  -->
<!DOCTYPE svg PUBLIC "-//W3C//DTD SVG 1.1//EN" "http://www.w3.org/Graphics/SVG/1.1/DTD/svg11.dtd" [
	<!ENTITY st0 "fill:#7C7C7C;">
	<!ENTITY st1 "fill:#565656;">
	<!ENTITY st2 "fill:none;stroke:#EDEDED;stroke-width:4;stroke-miterlimit:10;">
]>
<svg version="1.1" id="Layer_1" xmlns="http://www.w3.org/2000/svg" xmlns:xlink="http://www.w3.org/1999/xlink" x="0px" y="0px"
	 width="110px" height="66px" viewBox="0 0 110 66" style="enable-background:new 0 0 110 66;" xml:space="preserve">
<g>
	<path style="&st1;" d="M6.555,64C4.171,64,2,62.094,2,60V6c0-2.093,2.171-4,4.555-4h97.891C106.888,2,108,4.073,108,6v54
		c0,1.927-1.112,4-3.555,4H6.555z"/>
	<path style="&st0;" d="M104.223,4C105.702,4,106,5.666,106,6v54c0,0.334-0.075,2-1.555,2H6.555C5.313,62,4,60.972,4,60V6
		c0-0.972,1.313-2,2.555-2H104 M104.445,0H6.555C3.211,0,0,2.687,0,6v54c0,3.313,3.211,6,6.555,6h97.891
		c3.344,0,5.555-2.687,5.555-6V6C110,2.687,107.789,0,104.445,0L104.445,0z"/>
</g>
<line style="&st2;" x1="57.014" y1="13.989" x2="21.188" y2="48.5"/>
<line style="&st2;" x1="85.271" y1="21.379" x2="49.445" y2="55.339"/>
</svg>
